<svg width="17" height="20" viewBox="0 0 17 20" fill="none" xmlns="http://www.w3.org/2000/svg">
<path fill-rule="evenodd" clip-rule="evenodd" d="M2.38116 4.96333L1.5042 16.89C1.44027 17.7594 2.12841 18.5 3.00016 18.5H13.0426C13.9144 18.5 14.6025 17.7594 14.5386 16.89L13.6618 4.96334C13.6426 4.70213 13.425 4.5 13.1631 4.5H12.0169L12.0171 6.99994L10.5171 7L10.5169 4.5H5.52165L5.52154 7L4.02154 6.99994L4.02165 4.5H2.87982C2.6179 4.5 2.40037 4.70212 2.38116 4.96333ZM4.02171 3H2.87982C1.83215 3 0.962028 3.80849 0.885201 4.85334L0.00824044 16.78C-0.119614 18.5188 1.25665 20 3.00016 20H13.0426C14.7861 20 16.1624 18.5188 16.0346 16.78L15.1577 4.85336C15.0809 3.8085 14.2108 3 13.1631 3H12.0169L12.0169 2.74988C12.0168 1.23115 10.7856 0 9.26687 0H6.77172C5.25299 0 4.02179 1.23115 4.02172 2.74989L4.02171 3ZM5.52171 3L5.52172 2.74995C5.52175 2.05961 6.08139 1.5 6.77172 1.5H9.26687C9.95721 1.5 10.5168 2.05961 10.5169 2.74995L10.5169 3H5.52171Z" fill="#E8E9EA"/>
</svg>
